<svg width="1920" height="506" viewBox="0 0 1920 506" fill="none" xmlns="http://www.w3.org/2000/svg">
<rect width="1920" height="506" fill="url(#paint0_linear_169_2284)"/>
<mask id="mask0_169_2284" style="mask-type:alpha" maskUnits="userSpaceOnUse" x="0" y="0" width="1920" height="506">
<rect width="1920" height="506" fill="#1E4F9A"/>
</mask>
<g mask="url(#mask0_169_2284)">
<path d="M1051.07 -130.828C1122.44 -86.0051 1127.25 16.3571 1060.4 67.6917L974.518 133.637L975.184 120.148L996.559 105.878C995.276 95.8701 994.214 85.8631 993.341 75.8549C1040.9 62.0177 1075.76 17.9898 1075.76 -34.0371C1075.76 -83.0855 1044.78 -125.022 1001.39 -141.259C1002.13 -146.447 1002.89 -151.635 1003.69 -156.823L961.5 -207L919.308 -156.821C920.108 -151.633 920.875 -146.445 921.613 -141.257C878.223 -125.02 847.247 -83.0735 847.247 -34.0351C847.247 17.9918 882.102 62.0197 929.659 75.8569C928.786 85.864 927.724 95.8722 926.441 105.879L947.816 120.149L948.482 133.638L862.602 67.6927C795.75 16.3581 800.558 -86.0041 871.929 -130.827C762.826 -103.934 730.019 35.3912 815.63 108.261L873.827 157.797C878.863 162.084 880.95 168.946 879.076 175.295C879.044 175.402 879.013 175.509 878.981 175.615C877.956 179.012 881.895 181.734 884.737 179.613L924.224 150.139L939.446 160.569L890.495 198.157C885.875 201.704 882.56 206.807 881.66 212.567C878.936 230.004 898.211 241.613 913.296 235.739C922.347 232.214 924.609 223.906 924.609 216.479C924.609 206.893 929.11 197.872 937.01 192.459L950.916 182.931L951.658 197.961C951.658 204.466 949.427 210.778 945.311 215.809C941.85 220.04 940.012 225.652 940.749 231.695C941.906 241.186 949.601 248.803 959.089 249.865C971.718 251.278 982.411 241.42 982.411 229.06C982.411 224.17 980.736 219.674 977.931 216.112C973.825 210.899 971.341 204.594 971.341 197.954L972.083 182.93L985.989 192.458C993.89 197.871 998.391 206.892 998.391 216.478C998.391 223.905 1000.65 232.212 1009.7 235.738C1024.79 241.612 1044.06 230.003 1041.34 212.566C1040.44 206.807 1037.12 201.703 1032.51 198.156L983.554 160.568L998.777 150.138L1038.26 179.612C1041.1 181.733 1045.04 179.011 1044.02 175.614C1043.99 175.508 1043.96 175.401 1043.92 175.294C1042.05 168.945 1044.14 162.083 1049.17 157.796L1107.37 108.26C1192.98 35.3911 1160.17 -103.934 1051.07 -130.828ZM998.4 -118.746C1030.99 -104.471 1053.81 -71.8681 1053.81 -34.0351C1053.81 6.34801 1027.81 40.7643 991.705 53.3155C988.375 -4.0446 991.298 -61.4057 998.399 -118.766C998.397 -118.76 998.401 -118.753 998.4 -118.746ZM869.201 -34.0361C869.201 -71.8691 892.021 -104.462 924.599 -118.747C924.598 -118.759 924.601 -118.771 924.6 -118.782C931.702 -61.4177 934.626 -4.05258 931.296 53.3115C895.19 40.7583 869.201 6.34402 869.201 -34.0361Z" fill="url(#paint1_linear_169_2284)"/>
</g>
<defs>
<linearGradient id="paint0_linear_169_2284" x1="960" y1="506" x2="960" y2="1.8357e-05" gradientUnits="userSpaceOnUse">
<stop stop-color="#1E4F9A"/>
<stop offset="1" stop-color="#0F2C69"/>
</linearGradient>
<linearGradient id="paint1_linear_169_2284" x1="961.5" y1="-207" x2="961.5" y2="250" gradientUnits="userSpaceOnUse">
<stop stop-color="white"/>
<stop offset="0.435" stop-color="white" stop-opacity="0.20075"/>
<stop offset="0.815" stop-color="white" stop-opacity="0.0211321"/>
<stop offset="1" stop-color="white" stop-opacity="0"/>
</linearGradient>
</defs>
</svg>
