<svg width="136" height="136" viewBox="0 0 136 136" fill="none" xmlns="http://www.w3.org/2000/svg">
<rect width="136" height="136" rx="68" fill="#FF7315"/>
<path d="M100.312 105.5C92.2569 105.5 84.0451 103.556 75.6771 99.6667C67.309 95.7778 59.5486 90.2569 52.3958 83.1042C45.2431 75.9514 39.7222 68.191 35.8333 59.8229C31.9444 51.4549 30 43.2431 30 35.1875C30 33.8681 30.4514 32.7569 31.3542 31.8542C32.2569 30.9514 33.3681 30.5 34.6875 30.5H49.2708C50.2431 30.5 51.0764 30.8472 51.7708 31.5417C52.4653 32.2361 52.9514 33.1042 53.2292 34.1458L56.0417 47.2708C56.1806 48.2431 56.1632 49.1285 55.9896 49.9271C55.816 50.7257 55.4514 51.4028 54.8958 51.9583L44.4792 62.4792C46.2847 65.5347 48.1944 68.3819 50.2083 71.0208C52.2222 73.6597 54.4444 76.1597 56.875 78.5208C59.4444 81.1597 62.1528 83.5729 65 85.7604C67.8472 87.9479 70.8333 89.875 73.9583 91.5417L83.8542 81.3333C84.5486 80.5694 85.3472 80.0486 86.25 79.7708C87.1528 79.4931 88.0556 79.4236 88.9583 79.5625L101.354 82.2708C102.396 82.5486 103.264 83.1042 103.958 83.9375C104.653 84.7708 105 85.7083 105 86.75V100.812C105 102.132 104.549 103.243 103.646 104.146C102.743 105.049 101.632 105.5 100.312 105.5Z" fill="white"/>
</svg>
