<svg width="138" height="136" viewBox="0 0 138 136" fill="none" xmlns="http://www.w3.org/2000/svg">
<rect x="0.833984" width="136.333" height="136" rx="68" fill="#FF7315"/>
<path d="M69.0007 109.667C61.6395 109.667 55.6326 108.59 50.9798 106.438C46.327 104.285 44.0007 101.542 44.0007 98.2085C44.0007 96.4029 44.7993 94.6842 46.3965 93.0523C47.9937 91.4203 50.1812 90.0835 52.959 89.0418L57.6465 93.4168C56.2576 93.7641 54.9034 94.4064 53.584 95.3439C52.2645 96.2814 51.1187 97.2363 50.1465 98.2085C51.327 99.5974 53.775 100.813 57.4902 101.854C61.2055 102.896 65.0423 103.417 69.0007 103.417C72.959 103.417 76.8132 102.896 80.5632 101.854C84.3132 100.813 86.7784 99.5974 87.959 98.2085C86.9868 97.1668 85.7715 96.1946 84.3131 95.2918C82.8548 94.3891 81.4312 93.7641 80.0423 93.4168L84.834 89.0418C87.7506 90.0835 90.0076 91.4203 91.6048 93.0523C93.202 94.6842 94.0006 96.4029 94.0006 98.2085C94.0006 101.542 91.6743 104.285 87.0215 106.438C82.3687 108.59 76.3618 109.667 69.0007 109.667ZM69.0007 97.1668C59.2784 89.9446 51.9868 82.9307 47.1257 76.1252C42.2645 69.3196 39.834 62.6529 39.834 56.1252C39.834 51.1946 40.7194 46.8717 42.4902 43.1564C44.2611 39.4411 46.5527 36.3335 49.3652 33.8335C52.1777 31.3335 55.3027 29.4585 58.7402 28.2085C62.1777 26.9585 65.5979 26.3335 69.0007 26.3335C72.4034 26.3335 75.8409 26.9585 79.3132 28.2085C82.7854 29.4585 85.9104 31.3335 88.6882 33.8335C91.4659 36.3335 93.7402 39.4411 95.5111 43.1564C97.2819 46.8717 98.1673 51.1946 98.1673 56.1252C98.1673 62.6529 95.7541 69.3196 90.9277 76.1252C86.1013 82.9307 78.7923 89.9446 69.0007 97.1668ZM69.0007 63.8335C71.2923 63.8335 73.2541 63.0175 74.8861 61.3856C76.518 59.7536 77.334 57.7918 77.334 55.5002C77.334 53.2085 76.518 51.2467 74.8861 49.6147C73.2541 47.9828 71.2923 47.1668 69.0007 47.1668C66.709 47.1668 64.7472 47.9828 63.1152 49.6147C61.4833 51.2467 60.6673 53.2085 60.6673 55.5002C60.6673 57.7918 61.4833 59.7536 63.1152 61.3856C64.7472 63.0175 66.709 63.8335 69.0007 63.8335Z" fill="white"/>
</svg>
