<svg width="136" height="136" viewBox="0 0 136 136" fill="none" xmlns="http://www.w3.org/2000/svg">
<rect width="136" height="136" rx="68" fill="#FF7315"/>
<path d="M68 35L99.0713 53.315C100.02 53.81 100.662 54.4837 100.997 55.3362C101.332 56.1887 101.5 57.0275 101.5 57.8525V96.05C101.5 97.37 100.997 98.525 99.9925 99.515C98.9875 100.505 97.815 101 96.475 101H39.525C38.185 101 37.0125 100.505 36.0075 99.515C35.0025 98.525 34.5 97.37 34.5 96.05V57.8525C34.5 57.0275 34.6815 56.1887 35.0444 55.3362C35.4073 54.4837 36.0354 53.81 36.9288 53.315L68 35ZM68 73.445L96.14 57.1925L68 40.5275L39.86 57.1925L68 73.445Z" fill="white"/>
</svg>
