<svg width="61" height="70" viewBox="0 0 61 70" fill="red" xmlns="http://www.w3.org/2000/svg">
<path d="M44.3156 11.6675C55.3238 18.5331 56.0656 34.2122 45.7542 42.0753L32.5079 52.1764L32.6107 50.1102L35.9075 47.9245C35.7097 46.3915 35.5459 44.8587 35.4111 43.3257C42.7464 41.2062 48.1239 34.4623 48.1239 26.4932C48.1239 18.9803 43.3448 12.5569 36.6523 10.0697C36.7661 9.27503 36.8844 8.4804 37.0078 7.68576L30.4999 0L23.9922 7.68606C24.1156 8.4807 24.2339 9.27534 24.3477 10.07C17.6552 12.5572 12.8774 18.9822 12.8774 26.4935C12.8774 34.4626 18.2536 41.2065 25.5889 43.326C25.4542 44.8588 25.2903 46.3918 25.0925 47.9246L28.3893 50.1103L28.4921 52.1766L15.2458 42.0755C4.93441 34.2124 5.6761 18.5333 16.6844 11.6676C-0.143745 15.7868 -5.20394 37.1277 8.00075 48.2894L16.9772 55.8769C17.754 56.5336 18.0759 57.5848 17.7868 58.5571C17.7819 58.5736 17.777 58.59 17.7721 58.6063C17.6141 59.1266 18.2217 59.5434 18.66 59.2186L24.7505 54.704L27.0983 56.3016L19.5481 62.059C18.8355 62.6023 18.3241 63.384 18.1853 64.2662C17.7652 66.9371 20.7383 68.7153 23.0649 67.8156C24.461 67.2757 24.8099 66.0031 24.8099 64.8654C24.8099 63.3971 25.5042 62.0154 26.7226 61.1863L28.8676 59.7268L28.982 62.0291C28.982 63.0255 28.6379 63.9922 28.003 64.7629C27.4692 65.4109 27.1856 66.2705 27.2993 67.1962C27.4778 68.6499 28.6647 69.8166 30.1282 69.9793C32.076 70.1958 33.7254 68.6857 33.7254 66.7925C33.7254 66.0435 33.467 65.3549 33.0343 64.8093C32.401 64.0108 32.0178 63.045 32.0178 62.0279L32.1323 59.7267L34.2773 61.1861C35.4958 62.0152 36.1901 63.397 36.1901 64.8653C36.1901 66.0029 36.5392 67.2754 37.9351 67.8154C40.2618 68.7152 43.2348 66.937 42.8147 64.2661C42.676 63.384 42.1645 62.6022 41.4519 62.0589L33.9017 56.3014L36.2497 54.7039L42.3402 59.2184C42.7784 59.5433 43.3861 59.1264 43.2281 58.6061C43.2232 58.5898 43.2182 58.5735 43.2133 58.557C42.9243 57.5846 43.246 56.5335 44.023 55.8768L52.9994 48.2893C66.2039 37.1277 61.1436 15.7868 44.3156 11.6675ZM36.1915 13.5181C41.2179 15.7046 44.7377 20.6985 44.7377 26.4935C44.7377 32.6791 40.7285 37.9508 35.1589 39.8733C34.6452 31.0873 35.0961 22.3011 36.1913 13.5151C36.191 13.516 36.1917 13.5171 36.1915 13.5181ZM16.2637 26.4934C16.2637 20.6984 19.7834 15.706 24.8084 13.518C24.8082 13.5161 24.8087 13.5143 24.8085 13.5126C25.9039 22.2993 26.3549 31.086 25.8413 39.8727C20.2723 37.9498 16.2637 32.6785 16.2637 26.4934Z" fill="white"/>
</svg>
