<svg width="857" height="889" viewBox="0 0 857 889" fill="none" xmlns="http://www.w3.org/2000/svg">
<path d="M718.721 633.924C744.131 605.705 758.997 589.192 788.442 555.734C832.049 511.698 787.761 561.202 846.495 493.59C865.006 470.643 825.71 486.076 814.802 496.952C780.467 531.185 811.821 505.265 747.047 556.762C736.112 567.704 777.195 508.879 799.871 472.868C799.871 472.868 810.623 462.125 821.584 451.613C851.784 403.2 812.263 433.873 827.077 401.708C837.282 391.207 847.019 380.884 856.288 370.737C780.241 452.575 792.711 413.48 788.52 401.244C779.095 409.335 768.187 420.244 757.278 431.154C765.583 405.09 736.971 424.853 765.375 371.135C779.538 337.909 736.659 367.454 741.554 340.396C717.888 332.968 616.926 416.232 707.318 272.552C722.444 248.544 715.649 246.455 671.937 290.624C780.111 137.626 727.052 164.021 699.247 169.658C692.426 167.635 641.139 223.343 604.56 263.93C639.264 194.163 666.835 131.093 657.436 113.85C652.229 83.5424 646.918 53.3341 586.622 86.56C579.593 89.5775 591.256 64.6415 606.278 40.7335C595.448 51.5435 584.566 62.4199 573.553 73.462C567.591 57.2138 609.429 -15.704 577.38 3.06433C544.609 3.06433 310.073 104.848 195.859 241.3C77.6915 341.912 -106.795 634.853 82.1173 600.93C118.253 569.23 139.948 640.291 131.695 666.288C112.456 703.294 177.932 637.804 110.893 731.479C205.789 632.1 288.293 571.816 260.748 634.853C271.604 624.009 279.259 611.873 291.703 600.93C224.925 723.952 273.791 710.589 267.413 765.766C254.994 804.828 301.284 776.278 273.687 839.414C266.137 851.417 302.377 819.584 298.238 832.583C290.584 844.719 283.164 856.524 275.588 868.561C289.1 872.805 276.629 911.933 323.752 869.224C363.324 838.485 354.941 864.648 383.553 844.918C426.536 815.24 394.852 891.308 482.12 804.032C493.132 792.99 488.941 806.088 492.403 807.05C503.286 796.174 514.194 785.264 525.181 774.255C528.539 775.349 484.072 833.146 487.431 834.207C518.698 829.565 527.342 860.835 659.154 715.695C666.626 703.791 678.368 678.723 718.669 633.99L718.721 633.924Z" fill="url(#paint0_linear_147_2926)"/>
<mask id="mask0_147_2926" style="mask-type:alpha" maskUnits="userSpaceOnUse" x="1" y="0" width="854" height="889">
<path d="M717.356 633.924C742.766 605.705 757.631 589.192 787.076 555.734C830.684 511.698 786.396 561.202 845.13 493.59C863.64 470.643 824.345 486.076 813.436 496.952C779.102 531.185 810.455 505.265 745.681 556.762C734.747 567.704 775.829 508.879 798.505 472.868C798.505 472.868 809.258 462.125 820.218 451.613C850.418 403.2 810.898 433.873 825.712 401.708C835.917 391.207 845.654 380.884 854.922 370.737C778.875 452.575 791.346 413.48 787.154 401.244C777.73 409.335 766.821 420.244 755.913 431.154C764.218 405.09 735.606 424.853 764.01 371.135C778.173 337.909 735.294 367.454 740.188 340.396C716.523 332.968 615.561 416.232 705.953 272.552C721.079 248.544 714.284 246.455 670.572 290.624C778.745 137.626 725.687 164.021 697.882 169.658C691.061 167.635 639.773 223.343 603.195 263.93C637.899 194.163 665.469 131.093 656.071 113.85C650.864 83.5424 645.553 53.3341 585.257 86.56C578.228 89.5775 589.891 64.6415 604.913 40.7335C594.083 51.5435 583.2 62.4199 572.188 73.462C566.226 57.2138 608.063 -15.704 576.015 3.06433C543.243 3.06433 315.587 104.848 201.373 241.3C83.2053 341.912 -108.16 634.853 80.752 600.93C116.888 569.23 138.583 640.291 130.33 666.288C111.09 703.294 176.567 637.804 109.528 731.479C204.424 632.1 286.927 571.816 259.383 634.853C270.239 624.009 277.893 611.873 290.338 600.93C223.559 723.952 272.426 710.589 266.047 765.766C253.629 804.828 299.918 776.278 272.322 839.414C264.772 851.417 301.012 819.584 296.872 832.583C289.218 844.719 281.798 856.524 274.222 868.561C287.734 872.805 275.264 911.933 322.386 869.224C361.959 838.485 353.576 864.648 382.188 844.918C425.171 815.24 393.487 891.308 480.754 804.032C491.767 792.99 487.575 806.088 491.038 807.05C501.921 796.174 512.829 785.264 523.815 774.255C527.174 775.349 482.707 833.146 486.065 834.207C517.333 829.565 525.976 860.835 657.789 715.695C665.261 703.791 677.002 678.723 717.304 633.99L717.356 633.924Z" fill="url(#paint1_linear_147_2926)"/>
</mask>
<g mask="url(#mask0_147_2926)">
<path d="M763.848 698.5V561.24C762.359 561.24 760.862 561.265 759.356 561.314C706.294 562.837 675.443 590.266 632.253 608.555C608.806 618.461 581.658 623.031 555.744 616.172C524.893 607.789 496.511 595.602 459.491 600.172C411.364 606.266 362.003 609.312 321.281 589.509C281.792 571.22 259.58 546.838 220.092 529.315C197.509 519.277 172.286 518.215 146.84 518.668V698.491H763.848V698.5Z" fill="url(#paint2_linear_147_2926)"/>
<path d="M552.818 584.837C641.78 495.876 641.78 351.641 552.818 262.679C463.857 173.718 319.622 173.718 230.661 262.68C141.699 351.641 141.699 495.876 230.661 584.837C319.622 673.798 463.857 673.798 552.818 584.837Z" fill="url(#paint3_radial_147_2926)"/>
<g style="mix-blend-mode:screen" opacity="0.58">
<path d="M518.998 392.035C518.423 400.75 517.519 409.39 514.781 417.735C514.099 419.831 513.318 421.887 512.282 423.827C511.887 424.575 512.035 424.978 512.602 425.529C518.02 430.839 523.051 436.52 527.812 442.431C529.448 444.462 529.448 445.646 527.812 447.693C523.084 453.579 518.094 459.219 512.717 464.522C512.232 464.999 511.813 465.352 512.241 466.215C515.603 472.973 517.091 480.249 518.028 487.673C518.661 492.713 518.793 497.777 519.04 502.841C519.13 504.666 518.53 505.998 517.091 507.141C509.749 512.994 501.471 517.113 492.748 520.443C489.854 521.545 486.911 522.506 483.902 523.23C483.195 523.394 482.866 523.723 482.726 524.455C482.011 528.154 480.918 531.755 479.783 535.356C479.125 537.436 477.925 538.678 475.837 539.319C472.367 540.396 468.906 541.506 465.33 542.155C464.286 542.344 463.867 542.805 463.595 543.816C460.471 555.26 455.637 565.898 448.526 575.443C448.041 576.092 447.515 576.701 446.988 577.317C446.281 578.156 445.361 578.575 444.267 578.551C434.287 578.337 424.364 577.704 414.704 574.884C412.032 574.103 409.409 573.174 406.935 571.891C406.104 571.464 405.627 571.571 404.986 572.228C399.848 577.515 394.315 582.357 388.609 587.01C386.053 589.09 385.083 589.107 382.501 587.01C376.746 582.349 371.205 577.441 366.017 572.146C365.549 571.669 365.212 571.382 364.439 571.76C357.673 575.073 350.413 576.619 342.998 577.548C338.008 578.172 332.984 578.329 327.961 578.567C325.988 578.658 324.558 578.033 323.333 576.454C316.517 567.699 311.897 557.841 308.485 547.359C308.345 546.932 308.132 546.504 308.107 546.068C307.959 543.002 306.134 541.974 303.322 541.58C300.354 541.16 297.534 540.018 294.682 539.08C293.037 538.538 292.059 537.527 291.516 535.907C290.292 532.24 289.157 528.557 288.442 524.759C288.261 523.772 287.809 523.37 286.863 523.115C275.485 520.065 264.954 515.214 255.425 508.251C255.096 508.012 254.8 507.733 254.463 507.511C252.638 506.319 252.013 504.707 252.079 502.488C252.334 493.584 252.967 484.746 255.211 476.089C256.091 472.694 257.217 469.381 258.812 466.257C259.166 465.566 259.092 465.18 258.549 464.653C253.09 459.375 248.117 453.653 243.324 447.767C241.687 445.753 241.671 444.421 243.324 442.382C248.1 436.487 253.09 430.782 258.549 425.496C259.1 424.961 259.158 424.575 258.829 423.893C255.063 416.189 253.543 407.919 252.77 399.484C252.4 395.472 252.375 391.419 252.096 387.398C251.956 385.401 252.704 384.028 254.266 382.803C261.435 377.171 269.459 373.151 277.902 369.871C280.911 368.703 283.986 367.709 287.126 366.936C287.874 366.755 288.22 366.442 288.384 365.645C289.165 361.773 290.242 357.983 291.533 354.242C292.092 352.614 293.07 351.611 294.69 351.06C298.34 349.803 302.04 348.726 305.83 347.978C306.792 347.788 307.219 347.386 307.482 346.407C310.565 335.144 315.309 324.654 322.198 315.183C322.248 315.109 322.313 315.043 322.354 314.969C323.908 312.355 326.054 311.426 329.194 311.607C338.345 312.125 347.462 312.626 356.325 315.241C359.087 316.054 361.783 317.025 364.34 318.34C365.13 318.743 365.499 318.554 366.034 318.003C371.345 312.577 377.026 307.554 382.945 302.802C384.918 301.215 386.242 301.24 388.223 302.835C394.126 307.611 399.823 312.601 405.118 318.052C405.71 318.661 406.145 318.644 406.844 318.299C412.459 315.569 418.436 314.09 424.586 313.128C430.9 312.141 437.246 311.771 443.618 311.623C445.237 311.582 446.446 312.084 447.474 313.35C452.579 319.647 456.311 326.734 459.468 334.149C461.187 338.194 462.65 342.338 463.694 346.621C463.891 347.435 464.286 347.756 465.108 347.928C469.063 348.75 472.951 349.811 476.749 351.2C478.139 351.71 478.994 352.59 479.479 353.946C480.827 357.711 481.937 361.543 482.693 365.464C482.882 366.442 483.335 366.747 484.214 366.993C496.036 370.29 507.045 375.256 516.828 382.778C518.489 384.052 519.262 385.516 519.056 387.612C518.916 389.076 519.031 390.572 519.031 392.052L518.998 392.035ZM400.514 478.35C401.04 478.63 401.303 478.786 401.574 478.909C422.456 488.388 433.9 511.868 429.042 533.531C428.622 535.397 428.639 535.414 430.505 535.833C444.752 539.006 458.745 537.806 472.573 533.465C473.37 533.219 473.716 532.758 473.954 532.018C475.27 527.916 476.281 523.74 476.963 519.481C478.583 509.41 478.525 499.388 476.166 489.416C475.96 488.553 475.788 488.109 474.686 488.372C463.554 491.06 452.883 489.589 442.623 484.689C432.774 479.986 425.391 472.727 420.327 463.075C419.842 462.146 419.39 461.192 418.822 460.058C414.835 468.361 408.875 474.396 400.506 478.35H400.514ZM352.263 460.082C351.326 461.883 350.561 463.502 349.674 465.048C338.805 483.965 316.435 493.263 296.531 488.421C295.487 488.166 295.027 488.405 294.912 489.441C294.879 489.753 294.764 490.049 294.698 490.353C291.623 504.477 292.824 518.346 297.115 532.051C297.37 532.873 297.839 533.268 298.644 533.523C304.777 535.48 311.058 536.737 317.471 537.296C325.487 537.987 333.42 537.584 341.263 535.685C342.242 535.447 342.447 535.142 342.192 534.148C340.828 528.738 340.523 523.246 341.296 517.722C343.565 501.55 351.696 489.235 365.721 480.858C367.201 479.97 368.78 479.246 370.498 478.35C366.453 476.369 362.893 474.009 359.827 470.934C356.719 467.827 354.253 464.275 352.263 460.082ZM370.457 411.832C370.169 411.618 370.079 411.511 369.964 411.462C359.761 406.759 351.959 399.541 346.722 389.544C341.239 379.087 339.553 368.136 342.061 356.569C342.455 354.735 342.488 354.735 340.655 354.333C326.309 351.118 312.218 352.351 298.307 356.741C297.584 356.972 297.362 357.432 297.156 358.049C295.561 362.874 294.451 367.815 293.777 372.847C292.528 382.227 292.684 391.55 294.92 400.799C295.15 401.744 295.43 401.999 296.449 401.761C306.898 399.286 317.019 400.396 326.827 404.696C337.144 409.218 344.938 416.477 350.356 426.326C350.997 427.493 351.556 428.702 352.255 430.083C356.209 421.788 362.203 415.778 370.465 411.84L370.457 411.832ZM418.732 429.886C418.913 429.771 419.02 429.746 419.053 429.68C419.201 429.401 419.324 429.113 419.456 428.833C423.394 420.472 429.189 413.731 436.95 408.691C448.329 401.301 460.636 398.785 473.962 401.588C475.862 401.991 475.87 402.008 476.322 399.993C479.471 385.738 478.254 371.737 473.888 357.909C473.666 357.194 473.247 356.889 472.614 356.708C470.542 356.117 468.495 355.434 466.407 354.941C454.322 352.088 442.187 351.554 430.012 354.407C428.968 354.653 428.622 354.966 428.902 356.1C430.061 360.844 430.464 365.645 429.979 370.52C428.474 385.721 421.585 397.831 409.237 406.833C406.589 408.765 403.679 410.27 400.522 411.758C408.825 415.729 414.86 421.739 418.74 429.878L418.732 429.886ZM335.582 445.202C335.097 444.618 334.464 444.676 333.938 444.528C331.011 443.689 328.043 442.958 325.141 442.045C320.217 440.508 315.301 438.921 311.034 435.871C302.237 429.59 295.726 421.475 291.582 411.487C291.188 410.533 290.834 410.434 289.922 410.837C286.559 412.342 283.336 414.109 280.262 416.132C268.587 423.802 259.043 433.742 250.155 444.38C249.654 444.98 249.81 445.358 250.229 445.86C257.612 454.681 265.463 463.042 274.638 470.047C279.423 473.705 284.496 476.911 290.028 479.353C290.9 479.739 291.212 479.6 291.558 478.728C292.38 476.599 293.383 474.535 294.55 472.562C301.102 461.48 309.735 452.872 322.379 448.959C326.736 447.611 331.102 446.328 335.599 445.21L335.582 445.202ZM385.584 395.176C386.497 391.904 387.294 388.747 388.256 385.639C389.851 380.501 391.396 375.313 394.553 370.841C400.777 362.011 408.842 355.418 418.839 351.266C420.089 350.748 420.187 350.271 419.636 349.137C418.288 346.35 416.882 343.596 415.222 340.973C407.502 328.764 397.234 318.915 386.258 309.708C385.592 309.149 385.214 309.371 384.68 309.823C377.552 315.791 370.72 322.072 364.653 329.143C359.399 335.259 354.763 341.787 351.425 349.178C350.948 350.23 350.907 350.723 352.165 351.225C355.881 352.705 359.383 354.629 362.647 356.963C369.289 361.732 375.044 367.355 378.744 374.746C381.687 380.624 383.29 387.004 384.943 393.342C385.091 393.926 385.124 394.559 385.576 395.176H385.584ZM435.52 444.972C439.261 446.164 442.977 447.118 446.619 448.31C451.181 449.806 455.761 451.269 459.74 454.073C468.619 460.313 475.196 468.443 479.405 478.441C479.865 479.526 480.219 479.739 481.312 479.238C485.242 477.446 488.974 475.325 492.526 472.867C503.436 465.328 512.495 455.849 520.947 445.728C521.572 444.988 521.12 444.643 520.733 444.174C515.291 437.606 509.528 431.341 503.148 425.66C496.522 419.757 489.427 414.537 481.279 410.878C480.26 410.418 479.849 410.566 479.421 411.61C477.613 416.082 475.245 420.251 472.269 424.049C467.78 429.787 462.658 434.843 456.098 438.173C451.074 440.713 445.665 442.218 440.247 443.689C438.669 444.117 437.098 444.536 435.52 444.964V444.972ZM385.658 495.105C385.255 495.228 385.272 495.541 385.214 495.779C384.31 499.347 383.381 502.899 382.23 506.393C380.733 510.956 379.221 515.527 376.393 519.489C370.12 528.294 362.014 534.822 352.033 538.99C351.071 539.393 350.849 539.722 351.31 540.725C353.02 544.449 354.985 548.017 357.286 551.396C364.875 562.56 374.494 571.801 384.787 580.409C385.42 580.943 385.79 580.82 386.365 580.343C394.068 573.93 401.361 567.098 407.781 559.379C412.566 553.632 416.751 547.499 419.793 540.626C420.163 539.796 420.121 539.409 419.209 539.048C417.754 538.472 416.315 537.823 414.934 537.083C402.791 530.506 393.468 521.462 389.3 507.856C388.001 503.63 386.801 499.372 385.666 495.089L385.658 495.105ZM415.411 445.235C415.402 428.579 402.084 415.17 385.551 415.162C369.084 415.162 355.609 428.603 355.626 445.038C355.642 461.62 369.01 474.946 385.633 474.946C401.977 474.946 415.419 461.529 415.411 445.235ZM380.618 407.96C381.728 408.198 381.399 407.491 381.284 406.932C379.846 399.903 378.111 392.964 376.113 386.067C373.984 378.7 370.342 372.329 364.702 367.092C360.287 362.99 355.354 359.726 349.83 357.309C348.893 356.898 348.605 357.144 348.424 358.049C347.98 360.252 347.561 362.463 347.528 364.708C347.298 380.567 353.628 393.104 366.675 402.164C370.884 405.082 375.579 406.957 380.61 407.968L380.618 407.96ZM464.319 483.085C466.876 483.159 469.761 482.765 472.622 482.165C473.51 481.976 473.691 481.68 473.305 480.816C472.384 478.769 471.447 476.73 470.255 474.823C464.779 466.035 457.882 458.899 447.728 455.577C445.64 454.895 443.552 454.212 441.439 453.596C435.586 451.886 429.642 450.529 423.665 449.304C422.654 449.099 422.448 449.387 422.686 450.283C422.95 451.277 423.155 452.297 423.451 453.283C428.746 470.844 445.262 482.995 464.311 483.085H464.319ZM306.857 407.031C304.284 406.949 301.546 407.392 298.801 407.886C297.691 408.083 297.271 408.338 297.863 409.588C299.277 412.597 300.765 415.564 302.714 418.261C307.466 424.813 312.982 430.511 320.702 433.536C329.408 436.948 338.509 438.987 347.643 440.861C348.292 440.993 348.621 440.902 348.424 440.154C348.334 439.809 348.284 439.447 348.202 439.102C343.919 420.596 326.481 406.998 306.857 407.031ZM347.421 523.518C347.446 526.403 347.848 529.19 348.391 531.969C348.597 533.03 348.917 533.235 349.97 532.775C356.851 529.749 362.795 525.482 367.76 519.843C370.539 516.686 372.808 513.257 374.28 509.27C377.404 500.794 379.443 492.03 381.301 483.209C381.514 482.189 381.219 482.033 380.314 482.23C377.544 482.831 374.822 483.62 372.29 484.87C356.267 492.778 348.35 505.916 347.429 523.518H347.421ZM423.558 524.332C423.558 516.234 421.815 509.245 418.124 502.808C412.073 492.244 403.243 485.256 391.322 482.37C389.514 481.935 389.481 481.967 389.892 483.834C390.558 486.9 391.224 489.967 391.964 493.017C393.427 499.035 394.841 505.094 397.439 510.725C402.388 521.446 411.037 528.294 421.634 532.956C422.53 533.35 422.514 532.668 422.613 532.191C423.221 529.379 423.657 526.543 423.566 524.332H423.558ZM464.056 407.031C452.974 407.031 442.261 411.372 434.27 419.157C428.474 424.805 424.569 431.555 422.777 439.48C422.432 441.001 422.473 441.05 423.944 440.754C429.222 439.702 434.468 438.493 439.655 437.047C444.539 435.682 449.537 434.465 453.911 431.884C462.987 426.532 469.276 418.688 473.412 409.045C473.839 408.042 473.099 408.1 472.598 407.993C469.786 407.376 466.95 406.973 464.056 407.031ZM423.542 366.377C423.648 363.803 423.213 360.926 422.654 358.057C422.473 357.128 422.177 356.906 421.248 357.317C416.447 359.421 411.991 362.077 408.086 365.571C403.679 369.509 399.667 373.792 397.414 379.391C393.797 388.369 391.692 397.774 389.744 407.212C389.555 408.124 389.958 408.067 390.591 407.943C392.58 407.565 394.512 406.998 396.395 406.274C412.706 399.985 423.509 384.25 423.558 366.385L423.542 366.377ZM306.561 483.094C313.484 483.11 319.674 481.762 325.462 478.876C337.276 472.99 345.053 463.749 348.251 450.834C348.687 449.074 348.646 449.041 346.903 449.411C340.63 450.718 334.382 452.149 328.249 454.007C323.958 455.306 319.576 456.498 315.81 459.005C307.614 464.464 301.629 471.822 297.724 480.874C297.304 481.844 297.715 482.009 298.472 482.165C301.292 482.757 304.12 483.168 306.561 483.094ZM506.823 420.078C507.176 419.239 507.464 418.59 507.719 417.924C511.32 408.42 512.068 398.464 512.389 388.443C512.413 387.744 512.043 387.398 511.55 387.037C503.518 381.134 494.59 377.04 485.127 374.047C484.033 373.702 484.05 374.195 484.132 375.001C484.477 378.166 484.675 381.348 484.601 384.537C484.576 385.384 484.864 385.771 485.645 386.124C489.665 387.892 493.644 389.733 497.483 391.895C499.835 393.219 500.723 394.913 500.484 397.585C500.048 402.386 499.3 407.097 497.862 411.7C497.714 412.185 497.393 412.687 498.034 413.131C501.043 415.236 503.855 417.603 506.823 420.086V420.078ZM330.452 571.949C333.576 571.735 336.174 571.595 338.764 571.374C345.801 570.773 352.715 569.548 359.317 566.918C360.295 566.531 360.542 566.211 359.72 565.314C357.632 563.029 355.7 560.604 353.949 558.055C353.365 557.208 352.847 557.143 351.959 557.43C347.067 559.001 342.036 559.798 336.898 560.036C335.073 560.119 333.864 559.395 332.902 557.874C330.387 553.87 328.496 549.563 326.605 545.255C326.251 544.449 325.848 544.095 324.928 544.128C321.828 544.235 318.737 544.063 315.662 543.676C314.396 543.52 314.232 543.849 314.594 544.983C317.372 553.706 321.171 561.927 326.325 569.524C327.493 571.25 328.66 572.607 330.452 571.941V571.949ZM512.265 497.876C512.134 496.067 512.019 494.053 511.846 492.047C511.238 484.919 510.054 477.914 507.341 471.239C506.962 470.301 506.724 470.038 505.844 470.836C503.518 472.94 501.068 474.905 498.486 476.698C497.714 477.232 497.615 477.709 497.894 478.588C499.448 483.529 500.312 488.594 500.509 493.773C500.575 495.458 499.966 496.651 498.519 497.58C494.491 500.153 490.142 502.06 485.793 503.967C484.938 504.346 484.56 504.765 484.592 505.743C484.699 508.843 484.51 511.934 484.14 515.009C484.001 516.184 484.264 516.39 485.382 516.028C493.677 513.397 501.578 509.911 508.788 505.028C513.4 501.904 512.331 503.507 512.265 497.876ZM332.393 318.34C331.406 318.299 330.419 318.291 329.433 318.192C328.545 318.102 327.953 318.373 327.41 319.129C321.59 327.17 317.471 336.04 314.503 345.478C314.207 346.415 314.52 346.547 315.358 346.465C318.351 346.152 321.351 345.906 324.36 345.996C325.692 346.037 326.317 345.626 326.835 344.401C328.644 340.151 330.543 335.942 333.058 332.037C333.922 330.696 335.04 330.006 336.635 330.105C338.156 330.203 339.685 330.261 341.197 330.433C344.905 330.844 348.547 331.617 352.107 332.727C352.641 332.892 353.168 333.187 353.644 332.497C355.593 329.693 357.763 327.063 359.991 324.481C360.419 323.98 360.468 323.692 359.761 323.445C358.109 322.87 356.497 322.179 354.837 321.67C347.528 319.442 339.989 318.693 332.393 318.34ZM439.441 318.274C436.934 318.439 435.092 318.529 433.259 318.677C425.852 319.294 418.568 320.436 411.629 323.273C410.716 323.651 410.527 323.906 411.259 324.72C413.388 327.096 415.378 329.587 417.203 332.193C417.663 332.842 418.05 333.015 418.847 332.76C423.657 331.214 428.598 330.417 433.637 330.088C435.676 329.957 437.131 330.581 438.241 332.39C440.683 336.386 442.59 340.644 444.473 344.911C444.81 345.667 445.204 345.996 446.068 345.98C449.208 345.914 452.357 346.087 455.473 346.465C456.722 346.621 456.813 346.226 456.484 345.191C453.845 336.895 450.211 329.077 445.525 321.735C443.873 319.146 442.196 317.14 439.441 318.282V318.274ZM438.381 571.908C439.277 571.908 440.181 571.817 441.069 571.933C442.426 572.105 443.272 571.595 444.062 570.486C449.652 562.577 453.648 553.903 456.566 544.704C456.903 543.651 456.484 543.586 455.629 543.693C452.505 544.062 449.373 544.243 446.232 544.153C445.27 544.128 444.818 544.449 444.44 545.312C442.574 549.579 440.683 553.838 438.208 557.817C437.189 559.453 435.914 560.16 433.999 560.061C428.861 559.814 423.854 558.935 418.938 557.438C418.395 557.274 417.918 556.995 417.417 557.685C415.427 560.456 413.331 563.144 411.053 565.676C410.462 566.334 410.84 566.564 411.423 566.778C413.24 567.419 415.033 568.151 416.874 568.685C423.895 570.716 431.105 571.497 438.381 571.924V571.908ZM264.403 470.17C264 470.359 263.844 470.688 263.729 471.025C263.186 472.587 262.611 474.149 262.134 475.727C259.585 484.187 258.977 492.902 258.656 501.657C258.623 502.455 259.067 502.784 259.569 503.145C267.584 508.999 276.463 513.101 285.893 516.086C286.896 516.398 287.028 516.077 286.929 515.165C286.576 511.95 286.37 508.728 286.436 505.488C286.452 504.658 286.09 504.313 285.4 504.009C281.248 502.192 277.146 500.301 273.224 498.007C271.185 496.807 270.396 495.294 270.569 492.935C270.93 487.985 271.736 483.143 273.216 478.408C273.422 477.75 273.496 477.298 272.813 476.821C270.084 474.93 267.51 472.834 265.011 470.639C264.814 470.466 264.608 470.31 264.411 470.153L264.403 470.17ZM258.812 391.254C258.87 394.419 259.1 397.19 259.38 399.96C260.037 406.455 261.246 412.827 263.72 418.91C264.099 419.856 264.378 420.094 265.25 419.305C267.617 417.168 270.117 415.194 272.723 413.361C273.356 412.917 273.463 412.514 273.232 411.799C271.81 407.244 271.029 402.575 270.585 397.815C270.33 395.052 271.12 393.26 273.602 391.871C277.409 389.741 281.355 387.941 285.318 386.149C285.942 385.869 286.46 385.647 286.436 384.735C286.354 381.504 286.543 378.273 286.913 375.067C287.044 373.899 286.699 373.809 285.696 374.121C277.22 376.793 269.27 380.534 261.78 385.343C259.314 386.93 257.809 388.59 258.804 391.254H258.812ZM339.307 336.83C338.295 336.427 337.654 337.002 337.095 338.071C335.829 340.496 334.686 342.979 333.527 345.454C333.182 346.202 333.28 346.44 334.119 346.531C337.375 346.901 340.597 347.451 343.746 348.364C344.609 348.619 344.741 348.117 344.971 347.583C346.13 344.862 347.429 342.206 348.975 339.674C349.411 338.951 349.295 338.729 348.498 338.515C345.547 337.717 342.57 337.125 339.315 336.838L339.307 336.83ZM338.953 553.336C342.242 553.114 345.349 552.465 348.432 551.659C349.073 551.495 349.509 551.363 348.999 550.524C347.446 547.959 346.106 545.271 344.963 542.492C344.7 541.843 344.396 541.596 343.664 541.802C340.515 542.69 337.292 543.257 334.045 543.619C333.445 543.684 333.124 543.791 333.461 544.515C334.711 547.195 335.911 549.891 337.35 552.481C337.769 553.229 338.254 553.533 338.97 553.336H338.953ZM277.236 398.119C277.475 401.58 278.108 404.967 279.045 408.289C279.201 408.823 279.431 408.913 279.9 408.626C282.629 406.998 285.474 405.576 288.409 404.359C288.902 404.153 288.935 403.841 288.812 403.397C287.94 400.15 287.357 396.845 286.954 393.515C286.888 392.956 286.765 392.701 286.123 392.981C283.295 394.23 280.5 395.521 277.812 397.058C277.368 397.313 277.138 397.626 277.22 398.119H277.236ZM493.809 398.596C494.121 397.7 493.554 397.173 492.649 396.697C490.199 395.381 487.667 394.247 485.152 393.063C484.436 392.726 484.149 392.759 484.066 393.638C483.746 396.853 483.146 400.026 482.291 403.142C482.101 403.824 482.184 404.178 482.899 404.474C485.678 405.617 488.366 406.957 490.939 408.511C491.646 408.938 491.901 408.807 492.107 408.034C492.904 404.992 493.521 401.925 493.8 398.596H493.809ZM432.396 336.78C429.009 337.027 425.761 337.627 422.547 338.515C421.807 338.72 421.7 338.975 422.078 339.617C423.632 342.247 425.005 344.96 426.172 347.788C426.402 348.339 426.69 348.52 427.299 348.347C430.505 347.46 433.769 346.901 437.065 346.506C437.822 346.415 437.838 346.136 437.575 345.552C436.326 342.823 435.125 340.069 433.604 337.471C433.3 336.953 432.963 336.616 432.388 336.78H432.396ZM288.877 486.563C289.042 486.127 288.705 485.897 288.244 485.708C285.416 484.557 282.703 483.168 280.081 481.622C279.415 481.227 279.168 481.375 278.971 482.091C278.116 485.305 277.491 488.553 277.236 491.866C277.195 492.417 277.327 492.787 277.828 493.083C280.492 494.661 283.328 495.902 286.148 497.169C286.633 497.382 286.871 497.325 286.945 496.733C287.373 493.354 287.932 489.991 288.877 486.563ZM493.809 491.66C493.57 488.331 492.912 485.223 492.107 482.148C491.975 481.655 491.926 481.063 491.079 481.565C488.424 483.143 485.669 484.549 482.808 485.716C482.249 485.947 482.077 486.234 482.249 486.834C483.146 490.032 483.705 493.296 484.083 496.585C484.157 497.251 484.346 497.44 485.012 497.136C487.651 495.919 490.306 494.727 492.855 493.321C493.628 492.893 494.022 492.392 493.809 491.66ZM432.149 553.336C432.881 553.558 433.333 553.196 433.744 552.456C435.175 549.916 436.358 547.261 437.567 544.622C437.896 543.906 437.74 543.701 436.991 543.619C433.744 543.24 430.521 542.69 427.373 541.793C426.74 541.613 426.411 541.761 426.148 542.394C425.03 545.181 423.689 547.861 422.127 550.426C421.626 551.248 421.889 551.478 422.67 551.675C425.753 552.448 428.861 553.114 432.149 553.336Z" fill="#FFC79E"/>
<path d="M385.708 466.964C380.98 466.766 377.1 464.802 373.54 462.138C369.61 459.203 366.791 455.38 364.908 450.834C363.231 446.797 363.305 442.826 365.113 438.855C368.854 430.65 374.889 425.216 383.85 423.35C386.776 422.742 389.514 423.646 392.145 424.813C398.442 427.617 402.939 432.229 405.817 438.485C407.79 442.777 407.905 447.035 405.932 451.343C402.282 459.318 396.379 464.612 387.763 466.692C387.048 466.865 386.3 466.881 385.708 466.947V466.964ZM399.634 445.268C399.61 444.857 399.618 444.594 399.577 444.331C399.528 444.018 399.478 443.698 399.371 443.402C397.275 437.285 393.164 433.199 387.023 431.168C385.889 430.79 384.721 430.889 383.595 431.292C377.758 433.396 373.787 437.359 371.74 443.221C371.329 444.405 371.304 445.605 371.715 446.797C373.729 452.675 377.684 456.654 383.504 458.784C384.844 459.277 386.185 459.269 387.541 458.784C391.717 457.304 395.047 454.739 397.382 450.965C398.492 449.173 399.503 447.298 399.634 445.251V445.268Z" fill="url(#paint4_linear_147_2926)"/>
</g>
<path d="M262.147 609.625V579.222H252.931V561.078H260.52V551.763H252.931V439.116L264.86 428.33H252.389V412.635H246.963C246.963 412.635 246.42 382.233 223.647 372.425L213.889 355.752L204.13 372.425C181.357 382.233 180.815 412.635 180.815 412.635H175.389V428.33H162.917L174.846 439.116V551.763H167.258V561.078H174.846V579.222H165.63V609.625H159.127V619.433H165.096V627.769H262.706V619.433H268.675V609.625H262.164H262.147ZM240.994 551.27H232.863V560.585H240.994V579.222H186.767V560.585H194.898V551.27H186.767V454.81C186.767 437.644 213.88 436.173 213.88 436.173C213.88 436.173 240.994 437.644 240.994 454.81V551.27Z" fill="#5FAFFF"/>
<path d="M257.526 609.625V579.222H249.19V561.078H256.055V551.763H249.19V439.116L259.976 428.33H248.697V412.635H243.789C243.789 412.635 243.295 382.233 222.701 372.425L213.871 355.752L205.042 372.425C184.448 382.233 183.954 412.635 183.954 412.635H179.054V428.33H167.775L178.561 439.116V551.763H171.696V561.078H178.561V579.222H170.225V609.625H164.338V619.433H169.732V627.769H258.003V619.433H263.396V609.625H257.51H257.526ZM238.404 551.27H231.046V560.585H238.404V579.222H189.364V560.585H196.722V551.27H189.364V454.81C189.364 437.644 213.88 436.173 213.88 436.173C213.88 436.173 238.395 437.644 238.395 454.81V551.27H238.404Z" fill="#164080"/>
<path d="M475.423 651.693V624.752H467.251V608.671H473.976V600.417H467.251V500.594L477.823 491.033H466.774V477.123H461.965C461.965 477.123 461.488 450.182 441.305 441.484L432.656 426.71L424.007 441.484C403.824 450.173 403.347 477.123 403.347 477.123H398.538V491.033H387.488L398.061 500.594V600.417H391.336V608.671H398.061V624.752H389.889V651.693H384.126V660.382H389.412V667.773H475.908V660.382H481.194V651.693H475.431H475.423ZM456.678 599.981H449.468V608.235H456.678V624.752H408.625V608.235H415.835V599.981H408.625V514.496C408.625 499.287 432.656 497.98 432.656 497.98C432.656 497.98 456.686 499.287 456.686 514.496V599.981H456.678Z" fill="#5FAFFF"/>
<path d="M471.329 651.693V624.752H463.938V608.671H470.021V600.417H463.938V500.594L473.499 491.033H463.502V477.123H459.153C459.153 477.123 458.717 450.182 440.466 441.484L432.648 426.71L424.829 441.484C406.578 450.173 406.142 477.123 406.142 477.123H401.793V491.033H391.796L401.358 500.594V600.417H395.274V608.671H401.358V624.752H393.967V651.693H388.754V660.382H393.531V667.773H471.756V660.382H476.533V651.693H471.32H471.329ZM454.376 599.981H447.857V608.235H454.376V624.752H410.919V608.235H417.438V599.981H410.919V514.496C410.919 499.287 432.648 497.98 432.648 497.98C432.648 497.98 454.376 499.287 454.376 514.496V599.981Z" fill="#164080"/>
<path d="M591.146 665.652V644.137H584.618V631.296H589.995V624.702H584.618V544.981L593.061 537.343H584.232V526.236H580.392C580.392 526.236 580.006 504.721 563.892 497.775L556.986 485.977L550.08 497.775C533.959 504.713 533.58 526.236 533.58 526.236H529.741V537.343H520.911L529.355 544.981V624.702H523.978V631.296H529.355V644.137H522.827V665.652H518.223V672.591H522.441V678.494H591.524V672.591H595.741V665.652H591.137H591.146ZM576.175 624.349H570.42V630.942H576.175V644.129H537.798V630.942H543.553V624.349H537.798V556.08C537.798 543.929 556.986 542.893 556.986 542.893C556.986 542.893 576.175 543.937 576.175 556.08V624.349Z" fill="#5FAFFF"/>
<path d="M587.873 665.652V644.137H581.97V631.296H586.828V624.702H581.97V544.981L589.607 537.343H581.624V526.236H578.155C578.155 526.236 577.81 504.721 563.233 497.775L556.985 485.977L550.737 497.775C536.161 504.713 535.816 526.236 535.816 526.236H532.346V537.343H524.363L532.001 544.981V624.702H527.142V631.296H532.001V644.137H526.098V665.652H521.93V672.591H525.745V678.494H588.218V672.591H592.033V665.652H587.864H587.873ZM574.34 624.349H569.136V630.942H574.34V644.129H539.63V630.942H544.834V624.349H539.63V556.08C539.63 543.929 556.985 542.893 556.985 542.893C556.985 542.893 574.34 543.937 574.34 556.08V624.349Z" fill="#164080"/>
<path d="M757.518 631.148V616.859H753.186V608.334H756.754V603.952H753.186V551.015L758.793 545.943H752.931V538.568H750.382C750.382 538.568 750.127 524.28 739.423 519.668L734.836 511.833L730.248 519.668C719.544 524.28 719.29 538.568 719.29 538.568H716.741V545.943H710.879L716.486 551.015V603.952H712.918V608.334H716.486V616.859H712.153V631.148H709.095V635.76H711.899V639.682H757.765V635.76H760.568V631.148H757.51H757.518ZM747.579 603.722H743.756V608.104H747.579V616.859H722.093V608.104H725.916V603.722H722.093V558.39C722.093 550.325 734.836 549.634 734.836 549.634C734.836 549.634 747.579 550.325 747.579 558.39V603.722Z" fill="#5FAFFF"/>
<path d="M755.349 631.148V616.859H751.427V608.334H754.65V603.952H751.427V551.015L756.5 545.943H751.197V538.568H748.895C748.895 538.568 748.665 524.28 738.988 519.668L734.837 511.833L730.685 519.668C721.009 524.28 720.778 538.568 720.778 538.568H718.476V545.943H713.174L718.246 551.015V603.952H715.023V608.334H718.246V616.859H714.325V631.148H711.562V635.76H714.094V639.682H755.579V635.76H758.111V631.148H755.349ZM746.363 603.722H742.91V608.104H746.363V616.859H723.319V608.104H726.772V603.722H723.319V558.39C723.319 550.325 734.845 549.634 734.845 549.634C734.845 549.634 746.371 550.325 746.371 558.39V603.722H746.363Z" fill="#164080"/>
<path d="M198.606 656.856C235.601 653.897 271.364 654.883 307.126 654.39C383.584 654.39 462.508 657.843 531.566 639.575C605.738 619.63 682.648 608.811 763.849 601.766V708.19H147.256V662.628C163.764 660.235 180.848 658.278 198.606 656.856Z" fill="#164080"/>
<path d="M198.606 656.856C235.601 653.897 271.364 654.883 307.126 654.39C383.584 654.39 462.508 657.843 531.566 639.575C605.738 619.63 682.648 608.811 763.849 601.766V606.978C720.301 607.364 678.052 613.473 640.087 621.308C669.683 616.367 701.746 612.914 735.042 611.434C719.011 612.42 706.679 615.388 693.114 618.841C640.087 632.669 590.759 647.484 531.566 653.905C546.364 648.964 557.463 643.045 567.329 636.624C487.171 661.312 387.283 655.393 292.328 659.832C276.296 660.819 219.142 663.77 204.344 665.743C217.909 662.29 255.702 659.117 288.834 656.873C244.628 655.903 189.57 658.525 147.264 666.755V662.644C163.772 660.252 180.856 658.295 198.614 656.873L198.606 656.856Z" fill="#5FAFFF"/>
<path d="M712.499 649.818C675.503 646.448 639.741 647.574 603.978 647.007C527.521 647.007 448.597 650.936 379.538 630.161C305.366 607.487 228.456 595.18 147.255 587.172V708.181H763.849V656.379C747.34 653.658 730.257 651.43 712.499 649.818Z" fill="#164080"/>
<path d="M712.499 649.818C675.503 646.448 639.741 647.574 603.978 647.007C527.521 647.007 448.597 650.936 379.538 630.161C305.366 607.487 228.456 595.18 147.255 587.172V593.092C190.803 593.527 233.052 600.474 271.018 609.378C241.421 603.763 209.358 599.833 176.062 598.148C192.094 599.274 204.426 602.637 217.991 606.575C271.018 622.294 320.345 639.139 379.538 646.439C364.74 640.824 353.641 634.083 343.776 626.782C423.933 654.858 523.821 648.116 618.777 653.173C634.808 654.299 691.962 657.653 706.76 659.898C693.195 655.968 655.402 652.359 622.271 649.81C666.476 648.708 721.534 651.693 763.84 661.04V656.371C747.332 653.649 730.248 651.421 712.491 649.81L712.499 649.818Z" fill="#5FAFFF"/>
<path d="M278.564 583.39C263.839 573.911 248.367 563.084 238.658 549.839C226.227 579.074 216.189 609.978 206.965 635.365C253.357 679.932 338.941 673.914 388.811 633.877C396.407 627.917 402.902 621.282 408.566 614.171C408.303 611.219 408.032 608.26 407.752 605.3C402.918 606.771 397.879 607.98 392.625 608.876C351.231 616.275 311.679 605.588 278.564 583.39Z" fill="url(#paint5_linear_147_2926)"/>
<path d="M385.358 544.75C358.384 511.026 326.625 484.817 298.804 454.292C266.503 466.911 257.073 506.538 238.666 549.831C248.375 563.083 263.848 573.911 278.572 583.382C311.687 605.579 351.24 616.267 392.634 608.867C397.887 607.98 402.927 606.771 407.761 605.291C406.815 595.401 405.779 585.593 404.743 576.369C399.433 565.426 393.176 554.813 385.366 544.742L385.358 544.75Z" fill="url(#paint6_linear_147_2926)"/>
<path d="M385.358 544.75C393.168 554.821 399.425 565.435 404.735 576.377C402.984 560.839 401.217 546.954 399.852 537.121C394.829 500.906 347.433 466.969 305.513 452.154C303.17 452.746 300.934 453.461 298.805 454.292C326.625 484.817 358.384 511.027 385.358 544.75Z" fill="url(#paint7_linear_147_2926)"/>
<path d="M411.592 708.189C412.151 687.167 410.712 638.341 408.567 614.17C402.894 621.29 396.399 627.925 388.811 633.877C338.941 673.914 253.349 679.932 206.965 635.365C200.733 652.531 195.176 672.5 192.989 708.189H411.592Z" fill="url(#paint8_linear_147_2926)"/>
<path d="M311.549 413.21C300.573 427.786 283.728 436.46 268.56 446.605C253.392 456.75 238.528 470.348 235.691 488.377C234.631 495.11 235.33 502.172 233.102 508.618C228.547 521.78 212.721 529.894 211.685 543.788C211.151 550.908 214.924 557.772 219.939 562.853C231.35 574.412 249.24 578.276 265.074 574.642C280.9 571.009 294.646 560.617 304.52 547.718C314.393 534.827 320.699 519.527 325.319 503.956C333.08 477.796 336.319 450.543 337.569 423.355C338.194 409.831 338.325 396.291 338.284 382.759C338.276 379.018 340.348 368.223 335.818 366.497C331.033 364.672 329.635 373.584 328.476 376.708C323.815 389.278 319.696 402.366 311.541 413.202L311.549 413.21Z" fill="url(#paint9_linear_147_2926)"/>
<path style="mix-blend-mode:multiply" d="M316.481 414.855C305.505 429.431 288.66 438.104 273.492 448.249C258.324 458.394 243.459 471.992 240.623 490.021C239.563 496.755 240.261 503.817 238.033 510.262C233.479 523.424 217.653 531.539 216.617 545.433C216.083 552.552 219.856 559.417 224.871 564.498C236.282 576.057 254.172 579.921 270.006 576.287C285.832 572.653 299.578 562.262 309.451 549.362C319.325 536.471 325.631 521.172 330.251 505.601C338.012 479.441 341.251 452.187 342.501 425C343.126 411.476 343.257 397.935 343.216 384.403C343.208 380.662 345.28 369.868 340.75 368.141C335.965 366.316 334.567 375.228 333.408 378.352C328.747 390.923 324.628 404.011 316.472 414.846L316.481 414.855Z" fill="url(#paint10_linear_147_2926)"/>
<path d="M326.38 406.42C316.794 428.815 299.488 447.962 285.266 467.742C297.68 486.355 325.287 509.679 343.834 522.208C348.684 494.897 352.507 477.205 360.358 456.981C364.592 446.063 359.906 433.55 354.143 423.356C348.38 413.161 337.651 409.593 326.38 406.42Z" fill="url(#paint11_linear_147_2926)"/>
<path d="M388.855 348.458C390.145 335.318 380.539 323.619 367.399 322.328C354.259 321.037 342.56 330.643 341.269 343.784C339.978 356.924 349.584 368.623 362.725 369.914C375.865 371.205 387.564 361.598 388.855 348.458Z" fill="url(#paint12_linear_147_2926)"/>
<path style="mix-blend-mode:multiply" d="M382.703 358.483C388.404 348.052 384.57 334.975 374.139 329.274C363.709 323.573 350.632 327.407 344.93 337.837C339.229 348.268 343.063 361.345 353.494 367.046C363.924 372.748 377.002 368.914 382.703 358.483Z" fill="url(#paint13_linear_147_2926)"/>
<path d="M389.42 358.366C389.157 364.351 377.828 368.716 364.123 368.108C350.419 367.5 339.517 362.156 339.78 356.171C340.043 350.186 351.372 345.82 365.077 346.429C378.782 347.037 389.683 352.381 389.42 358.366Z" fill="url(#paint14_radial_147_2926)"/>
<path d="M404.103 394.029C402.401 417.263 369.27 422.302 346.036 420.6C322.803 418.899 318.257 411.097 319.967 387.855C321.669 364.622 341.885 347.168 365.126 348.87C388.359 350.572 405.813 370.788 404.111 394.029H404.103Z" fill="url(#paint15_linear_147_2926)"/>
<path style="mix-blend-mode:multiply" d="M401.293 395.428C399.681 417.452 367.618 422.188 345.125 420.535C322.632 418.883 318.225 411.484 319.845 389.459C321.456 367.434 341.006 350.918 363.491 352.562C385.985 354.215 402.904 373.403 401.293 395.428Z" fill="url(#paint16_linear_147_2926)"/>
<path d="M399.96 418.06L406.841 412.051L404.243 390.116L378.593 387.395L377.508 396.537L355.688 409.214C354.414 406.888 352.885 404.651 350.419 403.476C349.194 402.892 347.796 402.67 346.472 402.982C342.978 403.805 342.132 407.422 342.707 410.415C343.159 412.741 344.294 414.879 345.034 417.131C345.749 419.326 346.103 421.678 347.352 423.618C347.952 424.547 348.865 425.344 349.876 425.805L348.725 431.387C347.969 435.062 349.194 438.868 351.948 441.417L378.486 465.949C381.996 469.196 387.686 467.823 389.322 463.326L398.094 443.341L403.273 442.954C404.654 442.847 405.863 441.984 406.397 440.71C406.742 439.888 406.784 438.967 406.504 438.12L399.943 418.052L399.96 418.06Z" fill="url(#paint17_linear_147_2926)"/>
<path d="M403.257 409.634L401.621 413.604L391.139 410.16L384.71 409.601L392.462 406.279L403.257 409.634Z" fill="url(#paint18_linear_147_2926)"/>
<path opacity="0.43" d="M401.621 413.605L398.735 415.2L397.066 419.13L397.379 421.917L392.964 423.495L395.003 421.399L388.861 419.179L384.71 409.602L390.571 410.029L401.621 413.605Z" fill="url(#paint19_linear_147_2926)"/>
<path d="M387.579 412.265L389.988 415.479L395.858 417.715L397.354 417.173L398.67 419.639L389.264 416.351L387.579 412.265Z" fill="#231F20"/>
<path d="M391.945 470.167C392.75 466.402 393.548 462.644 394.353 458.879C394.551 457.942 394.756 456.972 394.592 456.026C394.436 455.081 393.827 454.144 392.898 453.881C391.394 453.461 390.087 454.884 388.812 455.788C386.247 457.613 382.433 457.408 380.081 455.311C377.73 453.215 376.776 449.614 378.289 446.86C374.869 445.799 372.041 443.275 370.035 440.307C368.029 437.34 366.755 433.944 365.669 430.532C363.088 422.426 361.411 414.032 360.679 405.556C359.076 406.436 357.259 407.11 355.656 407.99C351.044 417.189 348.709 426.931 344.475 436.312C307.151 518.911 366.352 569.808 368.703 569.488C452.173 558.266 396.195 476.078 391.928 470.167H391.945Z" fill="url(#paint20_linear_147_2926)"/>
<path style="mix-blend-mode:multiply" d="M398.061 543.106C406.282 529.13 404.638 510.221 395.595 497.889C400.527 500.355 402.172 505.288 406.282 508.577C400.527 495.423 396.417 480.624 382.441 473.225C389.462 469.016 391.09 461.206 392.948 453.897C392.931 453.897 392.915 453.881 392.898 453.881C391.394 453.461 390.087 454.884 388.812 455.788C386.247 457.613 382.433 457.408 380.081 455.311C377.73 453.215 376.776 449.614 378.289 446.86C374.869 445.799 372.041 443.275 370.035 440.307C368.029 437.34 366.755 433.944 365.669 430.532C363.088 422.426 361.411 414.032 360.679 405.556C359.076 406.436 357.259 407.11 355.656 407.99C351.044 417.189 348.709 426.931 344.475 436.312C307.151 518.911 366.352 569.808 368.703 569.488C378.133 568.222 385.77 566.043 391.92 563.182C399.952 552.684 405.337 540.163 407.096 527.494C405.452 533.249 402.986 539.003 398.053 543.114L398.061 543.106Z" fill="url(#paint21_linear_147_2926)"/>
<path style="mix-blend-mode:multiply" d="M386.387 478.364C386.141 477.854 385.886 477.345 385.606 476.851C385.82 477.377 386.083 477.879 386.387 478.364Z" fill="url(#paint22_linear_147_2926)"/>
<path d="M398.505 443.579C396.475 440.784 393.4 438.761 390.021 437.997C386.65 437.24 383 437.75 379.966 439.411C378.807 440.044 377.722 440.85 376.489 441.318C375.256 441.795 373.768 441.885 372.674 441.146C371.573 440.406 371.17 438.638 372.123 437.726C370.282 438.375 368.95 440.348 369.065 442.297C369.18 444.245 370.339 446.021 371.86 447.254C373.373 448.487 375.215 449.243 377.073 449.86C380.706 451.069 384.496 451.817 388.311 452.072C390.901 452.244 393.655 452.146 395.833 450.74C398.012 449.334 400.026 445.667 398.505 443.563V443.579Z" fill="url(#paint23_linear_147_2926)"/>
<path style="mix-blend-mode:multiply" d="M394.65 449.729C396.286 446.448 395.735 442.091 393.507 439.288C392.405 438.712 391.238 438.268 390.021 437.997C386.65 437.24 383 437.75 379.966 439.411C378.807 440.044 377.722 440.85 376.489 441.318C375.256 441.795 373.768 441.885 372.674 441.146C371.573 440.406 371.17 438.638 372.123 437.726C370.282 438.375 368.95 440.348 369.065 442.297C369.18 444.245 370.339 446.021 371.86 447.254C373.373 448.487 375.215 449.243 377.073 449.86C380.706 451.069 384.496 451.817 388.311 452.072C389.832 452.17 391.419 452.17 392.907 451.874C393.581 451.266 394.173 450.559 394.658 449.72L394.65 449.729Z" fill="url(#paint24_linear_147_2926)"/>
<path d="M256.656 583.39C243.493 573.911 229.673 563.083 220.992 549.839C209.885 579.074 200.907 609.977 192.661 635.365C234.121 679.932 310.62 673.914 355.187 633.876C361.97 627.916 367.782 621.282 372.846 614.17C372.608 611.219 372.37 608.259 372.115 605.299C367.79 606.771 363.293 607.98 358.599 608.876C321.603 616.275 286.252 605.587 256.656 583.39Z" fill="url(#paint25_linear_147_2926)"/>
<path d="M295.196 452.155C261.415 461.692 238.535 503.686 220.991 549.84C229.672 563.093 243.501 573.92 256.654 583.391C286.251 605.588 321.602 616.276 358.598 608.877C363.292 607.989 367.798 606.78 372.114 605.301C369.853 578.754 366.992 552.791 365.052 537.114C360.563 500.899 332.66 466.962 295.196 452.147V452.155Z" fill="url(#paint26_linear_147_2926)"/>
<path d="M375.551 708.19C376.053 687.168 374.77 638.342 372.846 614.171C367.782 621.291 361.97 627.926 355.187 633.878C310.62 673.915 234.121 679.933 192.661 635.366C187.087 652.532 182.13 672.501 180.173 708.19H375.551Z" fill="url(#paint27_linear_147_2926)"/>
<path style="mix-blend-mode:multiply" d="M221.304 630.252C223.466 660.876 236.234 687.299 255.381 708.19H375.551C376.052 687.168 374.77 638.342 372.846 614.171C372.608 611.22 372.369 608.26 372.114 605.301C369.854 578.754 366.993 552.791 365.052 537.114C360.564 500.899 332.661 466.962 295.196 452.147C294.892 452.237 294.588 452.328 294.284 452.418C230.651 507.829 193.713 602.982 223.778 683.682C219.668 665.595 221.312 648.331 221.312 630.244L221.304 630.252Z" fill="url(#paint28_linear_147_2926)"/>
<path d="M382.735 695.002C399.449 688.721 407.613 669.327 400.987 651.668L350.335 516.831C343.701 499.172 315.379 465.366 279.649 486.215C279.649 486.215 228.801 509.942 265.755 566.512C283.702 593.979 340.47 674.399 340.47 674.399C347.105 692.059 366.022 701.283 382.735 695.002Z" fill="url(#paint29_linear_147_2926)"/>
<path d="M420.076 542.168L355.663 641.859C348.494 654.947 340.93 688.359 366.605 696.152C366.605 696.152 399.86 710.457 416.632 660.135C424.779 635.701 439.758 549.148 439.758 549.148C437.193 540.91 427.245 529.08 420.076 542.168Z" fill="url(#paint30_linear_147_2926)"/>
<path d="M441.484 538.756C446.59 534.505 449.467 527.945 450.01 521.326C450.552 514.708 448.941 508.041 446.236 501.982C446.639 498.373 447.075 494.87 446.705 491.261C446.45 488.787 446.006 486.279 444.789 484.101C443.572 481.93 441.476 480.13 439.01 479.817C438.023 494.681 437.259 509.907 436.831 524.796L441.484 538.756Z" fill="url(#paint31_linear_147_2926)"/>
<path d="M436.519 470.01C434.669 467.519 435.196 464 437.687 462.15L450.956 451.849C453.447 449.999 458.478 459.125 444.379 471.169C442.019 473.183 438.369 472.493 436.519 470.002V470.01Z" fill="url(#paint32_linear_147_2926)"/>
<path d="M428.907 485.572C426.26 483.953 425.421 480.5 427.041 477.852L435.615 463.802C437.235 461.155 440.688 460.316 443.335 461.936C445.982 463.556 446.821 467.009 445.201 469.656L436.627 483.706C435.007 486.353 431.554 487.192 428.907 485.572Z" fill="url(#paint33_linear_147_2926)"/>
<path d="M431.389 503.857C428.289 503.832 425.79 501.292 425.823 498.193L425.963 481.734C425.988 478.634 428.528 476.135 431.627 476.168C434.727 476.192 437.226 478.733 437.193 481.832L437.053 498.291C437.029 501.391 434.488 503.89 431.389 503.857Z" fill="url(#paint34_linear_147_2926)"/>
<path d="M440.868 469.592C439.018 467.1 439.544 463.582 442.035 461.732L455.304 451.431C457.795 449.581 462.827 458.707 448.727 470.751C446.368 472.765 442.718 472.074 440.868 469.583V469.592Z" fill="url(#paint35_linear_147_2926)"/>
<path d="M433.247 485.154C430.6 483.534 429.761 480.081 431.381 477.434L439.955 463.384C441.575 460.737 445.028 459.898 447.675 461.518C450.322 463.137 451.161 466.59 449.541 469.237L440.967 483.287C439.347 485.935 435.894 486.773 433.247 485.154Z" fill="url(#paint36_linear_147_2926)"/>
<path d="M435.738 503.438C432.639 503.413 430.139 500.873 430.172 497.774L430.312 481.315C430.337 478.215 432.877 475.716 435.976 475.749C439.076 475.774 441.575 478.314 441.542 481.413L441.402 497.872C441.378 500.972 438.837 503.471 435.738 503.438Z" fill="url(#paint37_linear_147_2926)"/>
<path d="M465.17 461.157C458.815 463.952 452.493 464.897 445.554 464.61C439.371 470.225 433.107 475.429 426.193 480.115C423.883 500.602 422.386 521.682 420.076 542.169C423.94 546.715 429.284 551.031 433.148 555.57C440.868 549.806 446.138 540.878 447.453 531.342C448.768 521.805 442.438 499.073 437.777 489.216C441.279 484.809 443.984 481.208 447.486 476.802C449.245 474.59 453.117 475.725 455.822 474.903C458.519 474.081 461.224 472.839 462.999 470.644C465.449 467.61 467.431 464.338 465.17 461.157Z" fill="url(#paint38_linear_147_2926)"/>
<path d="M279.099 708.189H410.376C417.529 701.982 423.604 694.706 427.633 685.959C427.616 678.527 427.386 671.095 426.926 663.679C421.795 671.481 415.556 678.552 407.926 684.52C389.839 699.318 366.82 703.429 343.8 697.674C314.204 691.097 293.651 667.256 280.497 641.77C287.896 648.347 296.117 652.457 305.161 655.746C275.918 622.047 253.071 579.995 247.628 535.288C246.765 558.562 250.062 582.092 252.873 604.799C257.255 640.167 265.074 675.353 279.099 708.197V708.189Z" fill="url(#paint39_linear_147_2926)"/>
<path d="M427.024 708.189C427.452 700.79 427.657 693.375 427.641 685.959C423.604 694.715 417.529 701.99 410.384 708.189H427.032H427.024Z" fill="url(#paint40_linear_147_2926)"/>
<path d="M371.753 586.678C373.907 583.069 375.987 579.444 378.01 575.793C377.45 572.883 376.916 569.973 376.39 567.054C374.269 555.429 372.189 543.796 368.868 532.467C363.795 515.17 355.459 498.226 341.606 486.692C324.136 472.148 298.551 468.103 277.447 476.547C255.192 485.45 249.594 506.727 247.99 528.579C247.826 530.807 247.719 533.043 247.637 535.279C247.283 544.775 247.637 554.311 248.344 563.815C270.237 599.15 299.209 634.197 341.335 617.097C354.489 611.342 363.532 599.01 371.753 586.678Z" fill="url(#paint41_linear_147_2926)"/>
<path d="M279.1 708.188H335.202C336.155 706.881 337.101 705.574 338.046 704.242C364.108 666.909 373.274 626.551 380.534 584.73C380.345 584.944 380.147 585.157 379.958 585.363C379.268 582.181 378.626 578.991 378.01 575.793C375.987 579.444 373.907 583.069 371.753 586.678C363.532 599.01 354.489 611.342 341.335 617.097C299.209 634.189 270.229 599.15 248.344 563.815C249.38 577.61 251.213 591.348 252.874 604.79C257.256 640.157 265.074 675.344 279.1 708.188Z" fill="url(#paint42_linear_147_2926)"/>
<path d="M396.943 708.188H410.377C417.529 701.981 423.605 694.706 427.633 685.958C427.617 678.526 427.387 671.094 426.926 663.679C424.682 627.563 417.184 591.767 404.663 557.822C402.09 560.642 399.254 563.807 396.335 567.079C406.973 612.403 407.59 661.886 396.943 708.188Z" fill="url(#paint43_linear_147_2926)"/>
<path d="M396.943 708.189C407.589 661.887 406.973 612.403 396.335 567.079C391.698 572.275 386.856 577.742 382.531 582.535C381.849 583.291 381.191 584.023 380.533 584.738C373.274 626.56 364.107 666.918 338.046 704.251C337.109 705.574 336.155 706.89 335.201 708.197H396.935L396.943 708.189Z" fill="url(#paint44_linear_147_2926)"/>
<path style="mix-blend-mode:multiply" d="M279.099 708.189H410.376C417.529 701.982 423.604 694.706 427.633 685.959C427.616 678.527 427.386 671.095 426.926 663.679C421.795 671.481 415.556 678.552 407.926 684.52C389.839 699.318 366.82 703.429 343.8 697.674C314.204 691.097 293.651 667.256 280.497 641.77C287.896 648.347 296.117 652.457 305.161 655.746C275.918 622.047 253.071 579.995 247.628 535.288C246.765 558.562 250.062 582.092 252.873 604.799C257.255 640.167 265.074 675.353 279.099 708.197V708.189Z" fill="url(#paint45_linear_147_2926)"/>
<path style="mix-blend-mode:multiply" d="M363.531 602.3C363.531 627.786 353.665 651.627 349.555 676.291C369.54 648.898 375.534 614.845 382.53 582.528C381.65 583.506 380.787 584.46 379.957 585.364C378.633 579.288 377.507 573.172 376.389 567.055C364.723 594.161 349.143 619.309 331.468 643.406C346.266 633.54 356.954 618.742 363.531 602.3Z" fill="url(#paint46_linear_147_2926)"/>
</g>
<defs>
<linearGradient id="paint0_linear_147_2926" x1="430.458" y1="1221.97" x2="423.639" y2="24.3992" gradientUnits="userSpaceOnUse">
<stop stop-color="#FF903D"/>
<stop offset="1" stop-color="#FFCA85"/>
</linearGradient>
<linearGradient id="paint1_linear_147_2926" x1="429.86" y1="1221.97" x2="423.028" y2="24.3994" gradientUnits="userSpaceOnUse">
<stop stop-color="#FF903D"/>
<stop offset="1" stop-color="#FFCA85"/>
</linearGradient>
<linearGradient id="paint2_linear_147_2926" x1="455.344" y1="683.216" x2="455.344" y2="536.314" gradientUnits="userSpaceOnUse">
<stop stop-color="#FFE7C7" stop-opacity="0"/>
<stop offset="1" stop-color="#FFE7C7"/>
</linearGradient>
<radialGradient id="paint3_radial_147_2926" cx="0" cy="0" r="1" gradientUnits="userSpaceOnUse" gradientTransform="translate(391.743 423.758) scale(227.8)">
<stop stop-color="#FFD79A"/>
<stop offset="0.9" stop-color="#FFE3BC" stop-opacity="0.61"/>
<stop offset="0.91" stop-color="#FFEFDA" stop-opacity="0.34"/>
<stop offset="0.92" stop-color="#FFF4E5" stop-opacity="0.23"/>
<stop offset="0.93" stop-color="#FFF8EF" stop-opacity="0.15"/>
<stop offset="0.94" stop-color="#FFFBF6" stop-opacity="0.08"/>
<stop offset="0.95" stop-color="#FFFDFB" stop-opacity="0.03"/>
<stop offset="0.96" stop-color="#FFFEFE" stop-opacity="0"/>
<stop offset="1" stop-color="white" stop-opacity="0"/>
</radialGradient>
<linearGradient id="paint4_linear_147_2926" x1="385.527" y1="287.847" x2="385.527" y2="461.957" gradientUnits="userSpaceOnUse">
<stop stop-color="#FF6D00"/>
<stop offset="1" stop-color="#FF9100"/>
</linearGradient>
<linearGradient id="paint5_linear_147_2926" x1="316.817" y1="661.985" x2="302.775" y2="600.153" gradientUnits="userSpaceOnUse">
<stop offset="0.12" stop-color="#F99E00"/>
<stop offset="1" stop-color="#FBB700"/>
</linearGradient>
<linearGradient id="paint6_linear_147_2926" x1="332.684" y1="548.129" x2="346.159" y2="533.528" gradientUnits="userSpaceOnUse">
<stop offset="0.12" stop-color="#F99E00"/>
<stop offset="1" stop-color="#FBB700"/>
</linearGradient>
<linearGradient id="paint7_linear_147_2926" x1="350.845" y1="516.313" x2="365.068" y2="501.342" gradientUnits="userSpaceOnUse">
<stop offset="0.12" stop-color="#F99E00"/>
<stop offset="1" stop-color="#FBB700"/>
</linearGradient>
<linearGradient id="paint8_linear_147_2926" x1="317.27" y1="718.079" x2="305.497" y2="677.449" gradientUnits="userSpaceOnUse">
<stop offset="0.12" stop-color="#F99E00"/>
<stop offset="1" stop-color="#FBB700"/>
</linearGradient>
<linearGradient id="paint9_linear_147_2926" x1="211.644" y1="471.104" x2="338.761" y2="471.104" gradientUnits="userSpaceOnUse">
<stop offset="0.03" stop-color="white"/>
<stop offset="1" stop-color="#B3CBE9"/>
</linearGradient>
<linearGradient id="paint10_linear_147_2926" x1="239.258" y1="427.877" x2="354.718" y2="529.582" gradientUnits="userSpaceOnUse">
<stop offset="0.03" stop-color="white"/>
<stop offset="1" stop-color="#9BB1CB"/>
</linearGradient>
<linearGradient id="paint11_linear_147_2926" x1="285.794" y1="460.701" x2="360.735" y2="466.192" gradientUnits="userSpaceOnUse">
<stop offset="0.12" stop-color="#FF875E"/>
<stop offset="1" stop-color="#B03800"/>
</linearGradient>
<linearGradient id="paint12_linear_147_2926" x1="372.647" y1="346.026" x2="327.98" y2="346.596" gradientUnits="userSpaceOnUse">
<stop offset="0.03" stop-color="white"/>
<stop offset="1" stop-color="#B3CBE9"/>
</linearGradient>
<linearGradient id="paint13_linear_147_2926" x1="395.422" y1="333.197" x2="333.642" y2="362.455" gradientUnits="userSpaceOnUse">
<stop offset="0.03" stop-color="white"/>
<stop offset="1" stop-color="#9BB1CB"/>
</linearGradient>
<radialGradient id="paint14_radial_147_2926" cx="0" cy="0" r="1" gradientUnits="userSpaceOnUse" gradientTransform="translate(364.785 359.319) rotate(2.53) scale(24.8913 10.7797)">
<stop stop-color="#FFDEA1"/>
<stop offset="0.31" stop-color="#D99D59"/>
<stop offset="0.78" stop-color="#944307"/>
<stop offset="1" stop-color="#5E0500"/>
</radialGradient>
<linearGradient id="paint15_linear_147_2926" x1="370.752" y1="380.766" x2="302.738" y2="423.726" gradientUnits="userSpaceOnUse">
<stop offset="0.03" stop-color="white"/>
<stop offset="1" stop-color="#B3CBE9"/>
</linearGradient>
<linearGradient id="paint16_linear_147_2926" x1="406.706" y1="364.191" x2="309.52" y2="416.207" gradientUnits="userSpaceOnUse">
<stop offset="0.03" stop-color="white"/>
<stop offset="1" stop-color="#9BB1CB"/>
</linearGradient>
<linearGradient id="paint17_linear_147_2926" x1="394.331" y1="426.743" x2="347.431" y2="429.613" gradientUnits="userSpaceOnUse">
<stop offset="0.12" stop-color="#FF875E"/>
<stop offset="1" stop-color="#B03800"/>
</linearGradient>
<linearGradient id="paint18_linear_147_2926" x1="399.39" y1="409.795" x2="385.827" y2="410.623" gradientUnits="userSpaceOnUse">
<stop offset="0.03" stop-color="white"/>
<stop offset="1" stop-color="#B3CBE9"/>
</linearGradient>
<linearGradient id="paint19_linear_147_2926" x1="391.882" y1="430.027" x2="393.092" y2="412.837" gradientUnits="userSpaceOnUse">
<stop offset="0.12" stop-color="#FF875E"/>
<stop offset="1" stop-color="#B03800"/>
</linearGradient>
<linearGradient id="paint20_linear_147_2926" x1="377.054" y1="483.783" x2="307.84" y2="527.496" gradientUnits="userSpaceOnUse">
<stop offset="0.03" stop-color="white"/>
<stop offset="1" stop-color="#B3CBE9"/>
</linearGradient>
<linearGradient id="paint21_linear_147_2926" x1="422.355" y1="464.494" x2="328.46" y2="505.041" gradientUnits="userSpaceOnUse">
<stop offset="0.03" stop-color="white"/>
<stop offset="1" stop-color="#9BB1CB"/>
</linearGradient>
<linearGradient id="paint22_linear_147_2926" x1="385.581" y1="478.192" x2="386.404" y2="477.048" gradientUnits="userSpaceOnUse">
<stop offset="0.03" stop-color="white"/>
<stop offset="1" stop-color="#9BB1CB"/>
</linearGradient>
<linearGradient id="paint23_linear_147_2926" x1="384.721" y1="438.882" x2="382.979" y2="451.515" gradientUnits="userSpaceOnUse">
<stop offset="0.03" stop-color="white"/>
<stop offset="1" stop-color="#B3CBE9"/>
</linearGradient>
<linearGradient id="paint24_linear_147_2926" x1="377.262" y1="463.606" x2="388.558" y2="420.288" gradientUnits="userSpaceOnUse">
<stop offset="0.03" stop-color="white"/>
<stop offset="1" stop-color="#9BB1CB"/>
</linearGradient>
<linearGradient id="paint25_linear_147_2926" x1="291.76" y1="661.59" x2="277.94" y2="600.745" gradientUnits="userSpaceOnUse">
<stop stop-color="#9E2626"/>
<stop offset="1" stop-color="#F50000"/>
</linearGradient>
<linearGradient id="paint26_linear_147_2926" x1="309.764" y1="616.243" x2="291.669" y2="536.555" gradientUnits="userSpaceOnUse">
<stop stop-color="#9E2626"/>
<stop offset="1" stop-color="#F50000"/>
</linearGradient>
<linearGradient id="paint27_linear_147_2926" x1="292.377" y1="715.918" x2="281.138" y2="677.138" gradientUnits="userSpaceOnUse">
<stop stop-color="#9E2626"/>
<stop offset="1" stop-color="#F50000"/>
</linearGradient>
<linearGradient id="paint28_linear_147_2926" x1="336.788" y1="579.132" x2="158.494" y2="691.517" gradientUnits="userSpaceOnUse">
<stop stop-color="#9E2626"/>
<stop offset="1" stop-color="#F50000"/>
</linearGradient>
<linearGradient id="paint29_linear_147_2926" x1="335.981" y1="586.194" x2="292.499" y2="627.884" gradientUnits="userSpaceOnUse">
<stop offset="0.12" stop-color="#FF875E"/>
<stop offset="1" stop-color="#B03800"/>
</linearGradient>
<linearGradient id="paint30_linear_147_2926" x1="385.785" y1="638.135" x2="342.303" y2="679.833" gradientUnits="userSpaceOnUse">
<stop offset="0.12" stop-color="#FF875E"/>
<stop offset="1" stop-color="#B03800"/>
</linearGradient>
<linearGradient id="paint31_linear_147_2926" x1="463.657" y1="509.833" x2="434.907" y2="509.159" gradientUnits="userSpaceOnUse">
<stop offset="0.12" stop-color="#FF875E"/>
<stop offset="1" stop-color="#B03800"/>
</linearGradient>
<linearGradient id="paint32_linear_147_2926" x1="439.672" y1="458.418" x2="449.764" y2="464.256" gradientUnits="userSpaceOnUse">
<stop offset="0.12" stop-color="#FF875E"/>
<stop offset="1" stop-color="#B03800"/>
</linearGradient>
<linearGradient id="paint33_linear_147_2926" x1="432.144" y1="471.434" x2="442.236" y2="477.272" gradientUnits="userSpaceOnUse">
<stop offset="0.12" stop-color="#FF875E"/>
<stop offset="1" stop-color="#B03800"/>
</linearGradient>
<linearGradient id="paint34_linear_147_2926" x1="423.941" y1="485.615" x2="434.033" y2="491.453" gradientUnits="userSpaceOnUse">
<stop offset="0.12" stop-color="#FF875E"/>
<stop offset="1" stop-color="#B03800"/>
</linearGradient>
<linearGradient id="paint35_linear_147_2926" x1="443.293" y1="456.372" x2="463.468" y2="472.017" gradientUnits="userSpaceOnUse">
<stop offset="0.12" stop-color="#FF875E"/>
<stop offset="1" stop-color="#B03800"/>
</linearGradient>
<linearGradient id="paint36_linear_147_2926" x1="434.02" y1="468.333" x2="454.195" y2="483.978" gradientUnits="userSpaceOnUse">
<stop offset="0.12" stop-color="#FF875E"/>
<stop offset="1" stop-color="#B03800"/>
</linearGradient>
<linearGradient id="paint37_linear_147_2926" x1="424.417" y1="480.723" x2="444.592" y2="496.368" gradientUnits="userSpaceOnUse">
<stop offset="0.12" stop-color="#FF875E"/>
<stop offset="1" stop-color="#B03800"/>
</linearGradient>
<linearGradient id="paint38_linear_147_2926" x1="424.992" y1="506.628" x2="533.686" y2="514.406" gradientUnits="userSpaceOnUse">
<stop offset="0.12" stop-color="#FF875E"/>
<stop offset="1" stop-color="#B03800"/>
</linearGradient>
<linearGradient id="paint39_linear_147_2926" x1="304.133" y1="708.485" x2="384.742" y2="473.012" gradientUnits="userSpaceOnUse">
<stop stop-color="#9E2626"/>
<stop offset="1" stop-color="#F50000"/>
</linearGradient>
<linearGradient id="paint40_linear_147_2926" x1="403.363" y1="697.074" x2="427.641" y2="697.074" gradientUnits="userSpaceOnUse">
<stop stop-color="#9E2626"/>
<stop offset="1" stop-color="#F50000"/>
</linearGradient>
<linearGradient id="paint41_linear_147_2926" x1="270.048" y1="589.219" x2="329.249" y2="525.085" gradientUnits="userSpaceOnUse">
<stop stop-color="#9E2626"/>
<stop offset="1" stop-color="#F50000"/>
</linearGradient>
<linearGradient id="paint42_linear_147_2926" x1="252.101" y1="678.978" x2="329.102" y2="595.565" gradientUnits="userSpaceOnUse">
<stop stop-color="#9E2626"/>
<stop offset="1" stop-color="#F50000"/>
</linearGradient>
<linearGradient id="paint43_linear_147_2926" x1="364.741" y1="679.726" x2="420.456" y2="619.366" gradientUnits="userSpaceOnUse">
<stop stop-color="#9E2626"/>
<stop offset="1" stop-color="#F50000"/>
</linearGradient>
<linearGradient id="paint44_linear_147_2926" x1="332.012" y1="707.646" x2="402.18" y2="631.632" gradientUnits="userSpaceOnUse">
<stop stop-color="#9E2626"/>
<stop offset="1" stop-color="#F50000"/>
</linearGradient>
<linearGradient id="paint45_linear_147_2926" x1="304.133" y1="708.485" x2="384.742" y2="473.012" gradientUnits="userSpaceOnUse">
<stop stop-color="#9E2626"/>
<stop offset="1" stop-color="#F50000"/>
</linearGradient>
<linearGradient id="paint46_linear_147_2926" x1="369.442" y1="573.534" x2="321.364" y2="741.798" gradientUnits="userSpaceOnUse">
<stop stop-color="#9E2626"/>
<stop offset="1" stop-color="#F50000"/>
</linearGradient>
</defs>
</svg>
