<svg width="59" height="60" viewBox="0 0 59 60" fill="none" xmlns="http://www.w3.org/2000/svg">
<rect width="59" height="60" rx="29.5" fill="#1E4F9A"/>
<path d="M37.5591 16.6671C43.9805 20.5904 44.4133 29.5499 38.3983 34.043L30.6713 39.8151L30.7312 38.6344L32.6544 37.3854C32.539 36.5094 32.4434 35.6335 32.3648 34.7575C36.6438 33.5464 39.7806 29.6928 39.7806 25.139C39.7806 20.8459 36.9928 17.1754 33.0888 15.7541C33.1552 15.3 33.2242 14.8459 33.2962 14.3919L29.5 10L25.7038 14.392C25.7758 14.8461 25.8448 15.3002 25.9112 15.7543C22.0072 17.1755 19.2202 20.847 19.2202 25.1392C19.2202 29.6929 22.3562 33.5466 26.6352 34.7577C26.5566 35.6336 26.461 36.5096 26.3456 37.3855L28.2688 38.6345L28.3287 39.8152L20.6017 34.0431C14.5867 29.5499 15.0194 20.5904 21.4409 16.6672C11.6245 19.0211 8.6727 31.2159 16.3754 37.594L21.6117 41.9297C22.0648 42.3049 22.2526 42.9056 22.084 43.4612C22.0811 43.4706 22.0783 43.48 22.0754 43.4893C21.9832 43.7866 22.3376 44.0248 22.5933 43.8392L26.1461 41.2595L27.5157 42.1723L23.1114 45.4623C22.6957 45.7728 22.3974 46.2194 22.3164 46.7236C22.0714 48.2498 23.8056 49.2659 25.1629 48.7517C25.9772 48.4433 26.1808 47.716 26.1808 47.066C26.1808 46.2269 26.5858 45.4374 27.2965 44.9636L28.5477 44.1296L28.6145 45.4452C28.6145 46.0145 28.4138 46.567 28.0434 47.0074C27.732 47.3777 27.5666 47.8689 27.6329 48.3978C27.737 49.2285 28.4294 49.8952 29.2831 49.9882C30.4193 50.1119 31.3815 49.249 31.3815 48.1671C31.3815 47.7391 31.2308 47.3457 30.9784 47.0339C30.6089 46.5776 30.3854 46.0257 30.3854 45.4445L30.4522 44.1295L31.7034 44.9635C32.4142 45.4373 32.8192 46.2269 32.8192 47.0659C32.8192 47.7159 33.0229 48.4431 33.8371 48.7517C35.1944 49.2658 36.9286 48.2497 36.6836 46.7235C36.6027 46.2194 36.3043 45.7727 35.8886 45.4622L31.4843 42.1722L32.854 41.2594L36.4068 43.8391C36.6624 44.0247 37.0169 43.7865 36.9247 43.4892C36.9218 43.4799 36.919 43.4706 36.9161 43.4611C36.7475 42.9055 36.9352 42.3048 37.3884 41.9296L42.6247 37.5939C50.3273 31.2159 47.3754 19.0211 37.5591 16.6671ZM32.82 17.7246C35.7521 18.9741 37.8053 21.8277 37.8053 25.1392C37.8053 28.6738 35.4666 31.6862 32.2177 32.7847C31.918 27.7641 32.1811 22.7435 32.82 17.7229L32.82 17.7246ZM21.1955 25.1391C21.1955 21.8277 23.2487 18.9748 26.1799 17.7246L26.18 17.7215C26.8189 22.7424 27.0821 27.7635 26.7824 32.7844C23.5338 31.6856 21.1955 28.6734 21.1955 25.1391Z" fill="white"/>
</svg>
